<svg xmlns="http://www.w3.org/2000/svg" width="540.485" height="708.901" viewBox="0 0 540.485 708.901">
  <g id="bulb" transform="translate(-99.645 81.738) rotate(-14)" opacity="0.41">
    <path id="Path_2" data-name="Path 2" d="M390.891,141.762C360.559,72.56,285.675,34.428,211.509,45.9a157.4,157.4,0,0,0-27.951,7.06q-3.339-.068-6.68-.148c-1.868-.043-2.106,2.146-.943,3.071-54.12,22.132-93.535,73.011-102.31,132.14-6.047,40.746,3.446,83.357,28.569,116.325C139.781,353.67,191.3,371.718,215.77,431.035c-17.07,6.707-27.989,29.187-18.686,46.047a2.183,2.183,0,0,0,.87.733c.96,2.706,3.331,4.772,6.542,6.372-.13.065-.263.03-.39.135a21.443,21.443,0,0,0-1.808,1.993c-.75.005-1.5,0-2.251.005a.883.883,0,0,0,0,1.766h.643c-9.005,11.879-7.89,33.2,6.462,40a1.536,1.536,0,0,0,.905,1.368c29.4,13.529,66.849,7.682,97.769,2.318,22.455-3.894,54.225-8.313,70.5-26.846,9.863,7.325,14.855,19.169,12.5,31.075-21.649,20.414-49.751,28.357-78.443,33.343-26.023,4.524-72.743,14.482-96.656-3.586a1.9,1.9,0,0,0-.052-2.133c-.153-.233-.265-.475-.413-.708,10.446,1.686,20.972,3.008,31.475,4.229,1.133.133,1.413-1.836.273-2.008-10.961-1.663-21.972-3.251-33.006-4.381a29.771,29.771,0,0,1-3.441-10.358c9.838-.117,19.669.29,29.477,1.028,1.475.11,1.436-2.128,0-2.278a204.363,204.363,0,0,0-29.614-.748,24.178,24.178,0,0,1,4.219-14.73c1.01-1.523-1.188-3.048-2.446-1.888-7.267,6.715-9.553,18.361-5.647,27.379a1.191,1.191,0,0,0,.1.95c5.224,10.078,13.167,15.94,22.48,19.2.043.148-.025.29.073.435,38.027,56.806,148.313,44.114,156.348-29.947a3.009,3.009,0,0,0-.068-.7c2.258-1.753,4.564-3.436,6.677-5.409a1.9,1.9,0,0,0,1.843-1.078c.128-.275.183-.57.3-.848.54-.538,1.158-.96,1.686-1.513a3.073,3.073,0,0,0,.253-4.129c3.276-13.429-1.513-28.157-13.087-36.252,7.24-11.819,6.747-32.375-3.946-42.686A51.241,51.241,0,0,0,381.086,453a3.245,3.245,0,0,0-2.766-5.362c2.573-19.359-11.571-39.813-32.673-39.858-.05,0-.073.047-.123.05-8.905-60.444,42.494-101.67,55.833-157.065C410.018,214.788,405.689,175.515,390.891,141.762Zm-84,467.21c-28.849,5.374-55.33-6.2-73.9-27.989,18.456,4.224,40.856.27,58.581-1.811,28.719-3.371,59.569-8.955,84.2-24.635C369.447,586.572,336.862,603.39,306.894,608.972Zm71.533-133.378a33.249,33.249,0,0,1,.4,15.172,3.236,3.236,0,0,0-1.4,1.243c-15.562,24.935-53.08,29.472-79.706,33.748s-59.106,8.388-85.6.7a2.087,2.087,0,0,0-.523-1.138,45.984,45.984,0,0,1-5.039-6.084,147.821,147.821,0,0,0,29.872,4.074c1.943.04,1.878-2.806,0-2.976a309.873,309.873,0,0,1-31.888-4.139,29.342,29.342,0,0,1-4.061-13c9.768.27,19.564.173,29.332.04a1.14,1.14,0,0,0,0-2.278c-9.786-.133-19.6-.233-29.384.04a22.959,22.959,0,0,1,4.8-12.887c4.827.033,9.656.053,14.482.03,15.843,2.018,35.071.338,39.378-.05,32.31-2.918,83.7-4.171,112.091-25.613C374.2,466.414,376.974,470.222,378.427,475.594ZM344.707,416.5a4.3,4.3,0,0,0,1.268-1.766c7.96,2.038,14.765,4.476,20.274,11.194,5.8,7.072,7.882,16.235,7.077,25.228-.88.735-1.821,1.3-2.718,1.978a3.232,3.232,0,0,0-3.594,2.616c-18.191,11.994-39.873,14.212-61.667,17.838-9.088,1.513-96.558,15.642-103.6.728-.16-.9-.248-1.788-.363-2.681a5.478,5.478,0,0,1,.1-.883,1.387,1.387,0,0,0-.39-1.3c-.078-.923-.058-1.823-.083-2.733.125.083.17.218.345.26a66.675,66.675,0,0,0,32.14.12c1.641-.4.938-2.831-.693-2.511a75.4,75.4,0,0,1-30.72-.253,1.285,1.285,0,0,0-1.138.28,38,38,0,0,1,3.841-16.3c9.973.85,19.969,1.951,29.975,2.066,1.375.015,1.308-1.948,0-2.093-9.641-1.063-19.379-1.213-29.077-1.553a35.56,35.56,0,0,1,11.394-12.294c.825,2.143,1.706,4.2,2.461,6.45a1.771,1.771,0,0,0,3.249.273c.185.06.28.21.51.213,40.123.7,82.586-5.782,120.131-20.134A3.005,3.005,0,0,0,344.707,416.5Zm-84.492,16.46c-14.857-76.179-52.024-145.061-94.5-209.48,19.931-18.181,53.055-22.522,77.983-13.249,17.486,6.5,31.925,19.129,49.923,24.565,2.913.88,6.282,1.866,9.831,2.738-12.522,61.39-11.264,124.768,3.156,186.525C291.2,427.464,275.8,430.542,260.214,432.963Zm136.646-210.1c-4.541,70.27-73.078,119.148-58.686,191.817a3.823,3.823,0,0,0,.805,1.723c-9.135,2.376-18.188,4.386-27.256,6.45-11.466-63.013-11.189-123.067.175-183.624,11.486,1.681,22.9.41,26.508-10.964,1.108-3.486-3.671-5.007-5.567-2.346-4.629,6.49-11.6,8.3-19.671,7.44,3.591-18.008,8.005-36.062,13.537-54.27,1.233-4.059-4.864-5.614-6.277-1.731a423.391,423.391,0,0,0-15.675,54.292c-21.069-6.037-46.392-24.528-59.054-29.209a80.783,80.783,0,0,0-45.925-3.061c-14.175,3.151-27.336,9.856-37.272,19.306q-7.416-11.145-14.99-22.132c-1.728-2.5-5.744-.263-4.136,2.416q7.36,12.255,14.7,24.393c-9.671,11.244-15.09,25.606-13.259,42.131.245,2.2,3.6,2.326,3.534,0-.413-15.43,4.566-27.781,12.677-37.229,39.36,65.386,76.53,129.664,94.31,205.508-10.558,1.558-21.207,2.911-32.05,3.931a1.783,1.783,0,0,0-.94.473c-.64-2.276-1.52-4.346-2.266-6.532a1.591,1.591,0,0,0-.393-1.13c-.54-1.54-1.253-2.933-1.843-4.429,7.277,1.173,14.52,2.341,21.844,3.161,1.5.168,1.843-2.353.358-2.648-7.115-1.408-14.26-2.463-21.434-3.526a1.58,1.58,0,0,0-1.646.91c-5.774-13.894-13.694-25.928-22.757-36.967a72.254,72.254,0,0,0,20.977.22c1.17-.168.885-2.1-.278-2.056a166.228,166.228,0,0,1-22.83-.668A278.772,278.772,0,0,0,172.191,363.7c4.874.79,9.738,1.646,14.635,2.256,1.263.158,1.568-2.021.3-2.238-5.812-1-11.669-1.736-17.518-2.491-5.779-5.449-11.691-10.773-17.593-16.1a141.343,141.343,0,0,1,22.882,4.464,1.28,1.28,0,0,0,.68-2.466,100,100,0,0,0-26.629-4.774c-7.943-7.185-15.755-14.465-23.18-22.062,9.846,1.641,19.784,3.5,29.7,3.976a1.214,1.214,0,0,0,.323-2.373c-10.793-2.553-22.107-3.451-33.128-4.812a188.018,188.018,0,0,1-20.924-26.051c8.475,1.643,16.983,3.159,25.533,4.3,1.553.208,1.9-2.428.37-2.741-9.2-1.866-18.508-3.3-27.814-4.584a128.247,128.247,0,0,1-13.779-30.065c9.3,1.521,18.628,3.113,28.034,3.809,1.24.09,1.54-1.973.3-2.193-9.378-1.648-18.9-2.4-28.379-3.211a.611.611,0,0,0-.43.155,153.471,153.471,0,0,1-4.669-21.614,176.37,176.37,0,0,1,27.781,2.608c1.878.31,2.726-2.423.8-2.913a95.721,95.721,0,0,0-28.969-2.461,154.882,154.882,0,0,1-1.17-16.215c8.815.278,17.648.33,26.458.023a1.513,1.513,0,0,0,0-3.023c-8.785-.308-17.593-.253-26.381.023a157.63,157.63,0,0,1,2.548-27.814c10.686.675,21.392,1.553,32.1,1.38,2.323-.038,2.213-3.289,0-3.534-10.411-1.15-20.917-1.308-31.39-1.628a165.283,165.283,0,0,1,23.418-56.893c10.9,1.173,21.8,2.456,32.743,2.956,2.1.1,2.658-3.444.508-3.746-10.2-1.42-20.484-2.178-30.757-2.971A165.754,165.754,0,0,1,128.047,97.4c12.416,1.188,24.818,2.421,37.292,2.841,2.143.073,2.021-3.008,0-3.254-11.329-1.383-22.71-2.086-34.093-2.771a159.146,159.146,0,0,1,24.548-18.9c12.969,2.423,26.083,3.524,39.3,2.261,2.543-.243,2.646-4.131,0-4.046a229.013,229.013,0,0,1-34.519-1.153,152.506,152.506,0,0,1,35.041-14.72c11.4.8,22.8,1.51,34.213,1.633,2.968.033,2.886-4.324,0-4.556-5.644-.458-11.314-.625-16.978-.86,4.661-.74,9.343-1.433,14.157-1.731C323.507,46.209,403.085,126.58,396.861,222.863Z" transform="translate(67.059 65.855)" fill="#ff1e56"/>
    <path id="Path_3" data-name="Path 3" d="M135.083,181.48c-21.494,9.846-43.331,19.176-64.658,29.349-2.136,1.018-.633,4.554,1.613,3.824,22.447-7.295,44.552-18.1,64.876-30.042C138.964,183.406,137.168,180.525,135.083,181.48Z" transform="translate(63.357 272.08)" fill="#ff1e56"/>
    <path id="Path_4" data-name="Path 4" d="M94.8,121.438c-22.16,3.659-43.5,2.591-65.644-.308-2.313-.3-2.731,3.454-.545,4.019,22.11,5.719,45.1,4.994,67.387.638C98.872,125.227,97.625,120.973,94.8,121.438Z" transform="translate(0 181.767)" fill="#ff1e56"/>
    <path id="Path_5" data-name="Path 5" d="M103.482,94.391C86.852,72.6,75.156,48.309,67.428,22.038a1.954,1.954,0,0,0-3.766,1.038c6.25,27.471,18.824,52,36.389,73.961C101.584,98.955,104.99,96.364,103.482,94.391Z" transform="translate(54.667 30.997)" fill="#ff1e56"/>
    <path id="Path_6" data-name="Path 6" d="M139.284,2.341c.305-2.658-4.259-3.3-4.7-.635a231.458,231.458,0,0,0-1.691,60.137c.275,2.938,4.869,3.006,4.649,0C136.081,41.909,137.016,22.175,139.284,2.341Z" transform="translate(156.874 0)" fill="#ff1e56"/>
    <path id="Path_7" data-name="Path 7" d="M210.526,11.261c-15.175,17.658-24.563,39.915-30.972,62.1-.928,3.209,3.956,4.516,4.977,1.373,7.147-21.982,18.186-40.766,29.792-60.542C215.676,11.886,212.357,9.131,210.526,11.261Z" transform="translate(228.51 15.753)" fill="#ff1e56"/>
    <path id="Path_8" data-name="Path 8" d="M260.985,58.148c-11.224,9.04-21.3,19.511-31.643,29.527-2.438,2.363,1.24,6.009,3.716,3.716,10.556-9.783,21.557-19.274,31.18-29.987A2.3,2.3,0,0,0,260.985,58.148Z" transform="translate(302.206 86.386)" fill="#ff1e56"/>
    <path id="Path_9" data-name="Path 9" d="M279.771,128.269c-19.489,8.583-38.647,17.671-58.579,25.226-3.144,1.193-1.833,6.267,1.41,5.112,20.427-7.282,40.846-15.227,59.822-25.8C285.446,131.123,282.79,126.939,279.771,128.269Z" transform="translate(288.481 192.122)" fill="#ff1e56"/>
    <path id="Path_10" data-name="Path 10" d="M175.907,268.165c-10.176-2.081-21.344-4.461-31.755-4.541a.888.888,0,0,0-.235,1.736c9.956,3.061,21.307,4.141,31.663,5.227C176.955,270.729,177.262,268.441,175.907,268.165Z" transform="translate(174.263 395.648)" fill="#ff1e56"/>
    <path id="Path_11" data-name="Path 11" d="M167.717,261.657a109.222,109.222,0,0,0-28.314-1.611c-.915.068-.935,1.475,0,1.44a142.486,142.486,0,0,1,27.894,1.7C168.284,263.34,168.724,261.847,167.717,261.657Z" transform="translate(167.384 389.835)" fill="#ff1e56"/>
    <path id="Path_12" data-name="Path 12" d="M144.657,188.529c-5.509-.1-11.024-.017-16.533,0a.652.652,0,0,0,0,1.3c5.509.018,11.024.1,16.533,0A.652.652,0,0,0,144.657,188.529Z" transform="translate(150.555 282.873)" fill="#ff1e56"/>
    <path id="Path_13" data-name="Path 13" d="M107.719,87.816c-8.743-.845-17.678-.235-26.451-.118a1.931,1.931,0,0,0,0,3.859c8.773.118,17.708.728,26.451-.118A1.813,1.813,0,0,0,107.719,87.816Z" transform="translate(78.381 131.134)" fill="#ff1e56"/>
  </g>
</svg>
