<svg xmlns="http://www.w3.org/2000/svg" width="645.251" height="502.126" viewBox="0 0 645.251 502.126">
  <g id="clouds" transform="translate(-1300.114 -431.597)" opacity="0.41">
    <g id="cloud" transform="translate(1074.886 239.919)">
      <path id="path3837" d="M479.744,231.717c-13.871-.339-27.9,2.9-38.7,9.006s-18.257,14.709-20.685,25.93c-.025.091,0,.014,0,0-17.64,63.81,31.664,73.977,55.118,53.433-.036.05.619-.571,1.248-1.219,7.428-7.612,10.809-20.445,3.606-36.279h0c7.859,18.339,3.227,27.759-3.606,36.279-9.064,11.379-27.271,14.948-44.985,6.032-15.871-7.972-19.1-22.189-11.381-58.246-.153-.072.551.082-.48-.382-37.239-17.156-86.976,30.8-74.342,64.317a7.821,7.821,0,0,1-9.8,10.194c-14.327-4.755-21.117-1.452-28.207,4.553s-12.721,15.691-21.18,22.763c-9.235,7.721-22.354,9.17-35.333,5.74a66.531,66.531,0,0,1-19.794-9.2c5.729,23.155,16.41,44.827,29.988,59.877,17.774,19.7,38.448,28.217,61.758,18.013-7.2-47.409,56.505-69.57,62.91-12.058h0c-6.388-44.378-69.626-40.188-58.467,5.031,3.039,12.316,13.582,33.848,20.894,39.489s16.991,8.626,27.217,8.808c20.452.365,42.244-10.617,50.475-28.306a7.821,7.821,0,0,1,14.747,1.583c2.319,10.4,8.31,16.4,17.221,20.091s20.888,4.319,32.66,1.88,23.318-7.866,31.671-15.439,13.492-16.949,13.856-28.108c-8.1-3.549-9.147-9.4-13.856-14.564-10.9-11.9-12.73-25.493-7.213-38.69,7.168-17.208,20.791-29.705,42.724-17.146h0c-16.682-10.822-35.761,1.326-42.724,18.9-6.133,15.426-.828,36.033,29.877,44.072,27.621,3.626,45.412-5.1,57.2-19.794s17.177-36.262,16.033-57.7-8.831-42.48-21.18-55.819-28.556-19.787-50.97-13.46a8.165,8.165,0,0,1-9.8-6.631c-1.691-14.492-8.733-24.545-18.9-31.671s-23.734-10.944-37.609-11.283Z" transform="translate(0 0)" fill="none" stroke="#ff1e56" stroke-linecap="round" stroke-linejoin="round" stroke-width="12"/>
    </g>
    <g id="cloud-2" data-name="cloud" transform="translate(1581.114 677.611)">
      <path id="path3837-2" data-name="path3837" d="M359.5,231.715c12.836-.313,25.82,2.683,35.811,8.335s16.895,13.612,19.142,24c.024.084,0,.013,0,0,16.324,59.051-29.3,68.459-51.007,49.448.034.046-.573-.529-1.155-1.128-6.874-7.044-10-18.92-3.337-33.573h0c-7.273,16.971-2.986,25.689,3.337,33.573,8.388,10.53,25.237,13.833,41.63,5.582,14.687-7.377,17.672-20.534,10.532-53.9.142-.067-.51.076.444-.353,34.462-15.877,80.489,28.505,68.8,59.519a7.237,7.237,0,0,0,9.067,9.434c13.258-4.4,19.542-1.344,26.1,4.213s11.772,14.521,19.6,21.065c8.546,7.145,20.686,8.486,32.7,5.312a61.57,61.57,0,0,0,18.318-8.518c-5.3,21.428-15.186,41.484-27.751,55.411-16.449,18.232-35.58,26.113-57.151,16.669,6.659-43.873-52.291-64.381-58.217-11.158h0c5.911-41.068,64.433-37.19,54.106,4.655-2.813,11.4-12.569,31.324-19.336,36.544s-15.724,7.983-25.187,8.151c-18.926.337-39.093-9.825-46.71-26.194a7.237,7.237,0,0,0-13.647,1.465c-2.146,9.621-7.69,15.178-15.936,18.592s-19.33,4-30.224,1.74-21.579-7.28-29.308-14.288-12.486-15.685-12.822-26.011c7.5-3.284,8.465-8.7,12.822-13.477,10.091-11.009,11.781-23.592,6.675-35.8-6.634-15.925-19.24-27.49-39.537-15.867h0c15.438-10.015,33.093,1.227,39.537,17.495,5.676,14.275.766,33.345-27.649,40.784-25.561,3.356-42.025-4.717-52.938-18.318s-15.9-33.558-14.837-53.4,8.172-39.312,19.6-51.656,26.426-18.311,47.168-12.456a7.556,7.556,0,0,0,9.067-6.136A39.815,39.815,0,0,1,324.7,242.156c9.412-6.594,21.963-10.128,34.8-10.441Z" transform="translate(-231.228 -231.692)" fill="none" stroke="#ff1e56" stroke-linecap="round" stroke-linejoin="round" stroke-width="12"/>
    </g>
    <g id="cloud-3" data-name="cloud" transform="translate(1704.836 437.599)">
      <path id="path3837-3" data-name="path3837" d="M308.267,231.706a42.626,42.626,0,0,1,21.508,5.006c6,3.394,10.147,8.175,11.5,14.412.014.051,0,.008,0,0,9.8,35.466-17.6,41.116-30.634,29.7.02.028-.344-.318-.694-.677-4.128-4.23-6.008-11.363-2-20.164h0c-4.368,10.193-1.793,15.429,2,20.164,5.038,6.325,15.157,8.308,25,3.352,8.821-4.431,10.614-12.333,6.326-32.373.085-.04-.306.046.267-.212,20.7-9.535,48.341,17.12,41.319,35.747a4.347,4.347,0,0,0,5.446,5.666c7.963-2.643,11.737-.807,15.677,2.53s7.07,8.721,11.772,12.652c5.133,4.291,12.424,5.1,19.638,3.19a36.977,36.977,0,0,0,11-5.116c-3.184,12.87-9.121,24.915-16.667,33.28-9.879,10.95-21.369,15.683-34.325,10.011,4-26.35-31.405-38.667-34.965-6.7h0c3.55-24.665,38.7-22.336,32.5,2.8-1.689,6.845-7.549,18.813-11.613,21.948a25.508,25.508,0,0,1-15.127,4.9c-11.367.2-23.479-5.9-28.054-15.732a4.347,4.347,0,0,0-8.2.88c-1.289,5.778-4.618,9.116-9.571,11.167s-11.609,2.4-18.153,1.045a38.242,38.242,0,0,1-17.6-8.581c-4.642-4.209-7.5-9.42-7.7-15.622,4.5-1.972,5.084-5.222,7.7-8.094,6.061-6.612,7.075-14.169,4.009-21.5-3.984-9.564-11.556-16.51-23.746-9.53h0c9.272-6.015,19.876.737,23.746,10.507,3.409,8.574.46,20.027-16.606,24.5-15.352,2.015-25.24-2.833-31.794-11s-9.547-20.155-8.911-32.07,4.908-23.611,11.772-31.024,15.871-11,28.329-7.481a4.538,4.538,0,0,0,5.446-3.686,23.913,23.913,0,0,1,10.506-17.6c5.653-3.961,13.191-6.083,20.9-6.271Z" transform="translate(-231.228 -231.692)" fill="none" stroke="#ff1e56" stroke-linecap="round" stroke-linejoin="round" stroke-width="12"/>
    </g>
    <g id="cloud-4" data-name="cloud" transform="translate(1334.836 787.599)">
      <path id="path3837-4" data-name="path3837" d="M308.267,231.706a42.626,42.626,0,0,1,21.508,5.006c6,3.394,10.147,8.175,11.5,14.412.014.051,0,.008,0,0,9.8,35.466-17.6,41.116-30.634,29.7.02.028-.344-.318-.694-.677-4.128-4.23-6.008-11.363-2-20.164h0c-4.368,10.193-1.793,15.429,2,20.164,5.038,6.325,15.157,8.308,25,3.352,8.821-4.431,10.614-12.333,6.326-32.373.085-.04-.306.046.267-.212,20.7-9.535,48.341,17.12,41.319,35.747a4.347,4.347,0,0,0,5.446,5.666c7.963-2.643,11.737-.807,15.677,2.53s7.07,8.721,11.772,12.652c5.133,4.291,12.424,5.1,19.638,3.19a36.977,36.977,0,0,0,11-5.116c-3.184,12.87-9.121,24.915-16.667,33.28-9.879,10.95-21.369,15.683-34.325,10.011,4-26.35-31.405-38.667-34.965-6.7h0c3.55-24.665,38.7-22.336,32.5,2.8-1.689,6.845-7.549,18.813-11.613,21.948a25.508,25.508,0,0,1-15.127,4.9c-11.367.2-23.479-5.9-28.054-15.732a4.347,4.347,0,0,0-8.2.88c-1.289,5.778-4.618,9.116-9.571,11.167s-11.609,2.4-18.153,1.045a38.242,38.242,0,0,1-17.6-8.581c-4.642-4.209-7.5-9.42-7.7-15.622,4.5-1.972,5.084-5.222,7.7-8.094,6.061-6.612,7.075-14.169,4.009-21.5-3.984-9.564-11.556-16.51-23.746-9.53h0c9.272-6.015,19.876.737,23.746,10.507,3.409,8.574.46,20.027-16.606,24.5-15.352,2.015-25.24-2.833-31.794-11s-9.547-20.155-8.911-32.07,4.908-23.611,11.772-31.024,15.871-11,28.329-7.481a4.538,4.538,0,0,0,5.446-3.686,23.913,23.913,0,0,1,10.506-17.6c5.653-3.961,13.191-6.083,20.9-6.271Z" transform="translate(-231.228 -231.692)" fill="none" stroke="#ff1e56" stroke-linecap="round" stroke-linejoin="round" stroke-width="12"/>
    </g>
  </g>
</svg>
